<svg xmlns="http://www.w3.org/2000/svg"  viewBox="0 0 48 48" width="48px" height="48px" baseProfile="basic"><linearGradient id="8ole7qLlYuNFZN-w3HlbFa" x1="34.756" x2="23.011" y1="36.975" y2="24.21" gradientUnits="userSpaceOnUse"><stop offset="0" stop-color="#05acb3"/><stop offset="1" stop-color="#038387"/></linearGradient><path fill="url(#8ole7qLlYuNFZN-w3HlbFa)" d="M44.588,41.324L27.736,23.233c-2.851,3.007-3.161,6.526-1.928,10.356l7.338,7.877	c0.246,0.264,0.59,0.414,0.951,0.414h10.25C44.636,41.88,44.785,41.536,44.588,41.324z"/><linearGradient id="8ole7qLlYuNFZN-w3HlbFb" x1="12.572" x2="42.636" y1="10.805" y2="41.826" gradientUnits="userSpaceOnUse"><stop offset="0" stop-color="#26c6da"/><stop offset="1" stop-color="#05a8af"/></linearGradient><path fill="url(#8ole7qLlYuNFZN-w3HlbFb)" d="M15.016,22.004L4.007,10.187	C3.518,9.662,3.547,8.839,4.073,8.35l4.296-4.002c0.525-0.489,1.347-0.46,1.836,0.065l10.633,11.414l-3.335-0.918l1.021,3.964	l-3.304,0.12L15.016,22.004z M19.905,31.128l-4.265,1.141l-0.12-3.724l-2.62-0.279l-8.893,9.547	c-0.489,0.525-0.46,1.347,0.065,1.836l4.296,4.002c0.525,0.489,1.347,0.46,1.836-0.065l9.351-10.038L19.905,31.128z M44.347,6.12	h-10.25c-0.361,0-0.705,0.15-0.951,0.414l-9.773,10.491l0.001,0.003l-5.841,6.3c-0.364,0.393-0.363,1.001,0.002,1.393l9.097,9.749	c-1.126-4.46-0.541-7.974,1.617-10.255L44.588,6.676C44.785,6.464,44.636,6.12,44.347,6.12z"/></svg>